<?xml version="1.0" encoding="UTF-8"?>
<!DOCTYPE svg PUBLIC "-//W3C//DTD SVG 1.0//EN" "http://www.w3.org/TR/2001/REC-SVG-20010904/DTD/svg10.dtd">
<!-- Creator: CorelDRAW -->
<svg xmlns="http://www.w3.org/2000/svg" xml:space="preserve" width="128.34mm" height="87.4099mm" version="1.0" style="shape-rendering:geometricPrecision; text-rendering:geometricPrecision; image-rendering:optimizeQuality; fill-rule:evenodd; clip-rule:evenodd"
viewBox="0 0 12826.1 8735.63"
 xmlns:xlink="http://www.w3.org/1999/xlink"
 xmlns:xodm="http://www.corel.com/coreldraw/odm/2003">
 <defs>
  <style type="text/css">
   <![CDATA[
    .fil0 {fill:black}
    .fil1 {fill:white;fill-rule:nonzero}
   ]]>
  </style>
 </defs>
 <g id="Camada_x0020_1">
  <metadata id="CorelCorpID_0Corel-Layer"/>
  <path class="fil0" d="M174.05 0c96.13,0 174.05,77.92 174.05,174.05 0,96.13 -77.92,174.05 -174.05,174.05 -96.13,0 -174.05,-77.92 -174.05,-174.05 0,-96.13 77.92,-174.05 174.05,-174.05zm0 8387.53c96.13,0 174.05,77.92 174.05,174.05 0,96.13 -77.92,174.05 -174.05,174.05 -96.13,0 -174.05,-77.92 -174.05,-174.05 0,-96.13 77.92,-174.05 174.05,-174.05zm12478 0c96.13,0 174.05,77.92 174.05,174.05 0,96.13 -77.92,174.05 -174.05,174.05 -96.13,0 -174.05,-77.92 -174.05,-174.05 0,-96.13 77.92,-174.05 174.05,-174.05zm-734 0c96.13,0 174.05,77.92 174.05,174.05 0,96.13 -77.92,174.05 -174.05,174.05 -96.13,0 -174.05,-77.92 -174.05,-174.05 0,-96.13 77.92,-174.05 174.05,-174.05zm-734 0c96.13,0 174.05,77.92 174.05,174.05 0,96.13 -77.92,174.05 -174.05,174.05 -96.13,0 -174.05,-77.92 -174.05,-174.05 0,-96.13 77.92,-174.05 174.05,-174.05zm-734 0c96.13,0 174.05,77.92 174.05,174.05 0,96.13 -77.92,174.05 -174.05,174.05 -96.13,0 -174.05,-77.92 -174.05,-174.05 0,-96.13 77.92,-174.05 174.05,-174.05zm-734 0c96.13,0 174.05,77.92 174.05,174.05 0,96.13 -77.92,174.05 -174.05,174.05 -96.13,0 -174.05,-77.92 -174.05,-174.05 0,-96.13 77.92,-174.05 174.05,-174.05zm-734 0c96.13,0 174.05,77.92 174.05,174.05 0,96.13 -77.92,174.05 -174.05,174.05 -96.13,0 -174.05,-77.92 -174.05,-174.05 0,-96.13 77.92,-174.05 174.05,-174.05zm-734 0c96.13,0 174.05,77.92 174.05,174.05 0,96.13 -77.92,174.05 -174.05,174.05 -96.13,0 -174.05,-77.92 -174.05,-174.05 0,-96.13 77.92,-174.05 174.05,-174.05zm-734 0c96.13,0 174.05,77.92 174.05,174.05 0,96.13 -77.92,174.05 -174.05,174.05 -96.13,0 -174.05,-77.92 -174.05,-174.05 0,-96.13 77.92,-174.05 174.05,-174.05zm-734 0c96.13,0 174.05,77.92 174.05,174.05 0,96.13 -77.92,174.05 -174.05,174.05 -96.13,0 -174.05,-77.92 -174.05,-174.05 0,-96.13 77.92,-174.05 174.05,-174.05zm-734 0c96.13,0 174.05,77.92 174.05,174.05 0,96.13 -77.92,174.05 -174.05,174.05 -96.13,0 -174.05,-77.92 -174.05,-174.05 0,-96.13 77.92,-174.05 174.05,-174.05zm-734 0c96.13,0 174.05,77.92 174.05,174.05 0,96.13 -77.92,174.05 -174.05,174.05 -96.13,0 -174.05,-77.92 -174.05,-174.05 0,-96.13 77.92,-174.05 174.05,-174.05zm-734 0c96.13,0 174.05,77.92 174.05,174.05 0,96.13 -77.92,174.05 -174.05,174.05 -96.13,0 -174.05,-77.92 -174.05,-174.05 0,-96.13 77.92,-174.05 174.05,-174.05zm-734 0c96.13,0 174.05,77.92 174.05,174.05 0,96.13 -77.92,174.05 -174.05,174.05 -96.13,0 -174.05,-77.92 -174.05,-174.05 0,-96.13 77.92,-174.05 174.05,-174.05zm-734 0c96.13,0 174.05,77.92 174.05,174.05 0,96.13 -77.92,174.05 -174.05,174.05 -96.13,0 -174.05,-77.92 -174.05,-174.05 0,-96.13 77.92,-174.05 174.05,-174.05zm-734 0c96.13,0 174.05,77.92 174.05,174.05 0,96.13 -77.92,174.05 -174.05,174.05 -96.13,0 -174.05,-77.92 -174.05,-174.05 0,-96.13 77.92,-174.05 174.05,-174.05zm-734 0c96.13,0 174.05,77.92 174.05,174.05 0,96.13 -77.92,174.05 -174.05,174.05 -96.13,0 -174.05,-77.92 -174.05,-174.05 0,-96.13 77.92,-174.05 174.05,-174.05zm-734 0c96.13,0 174.05,77.92 174.05,174.05 0,96.13 -77.92,174.05 -174.05,174.05 -96.13,0 -174.05,-77.92 -174.05,-174.05 0,-96.13 77.92,-174.05 174.05,-174.05zm-734 -645.19c96.13,0 174.05,77.92 174.05,174.05 0,96.13 -77.92,174.05 -174.05,174.05 -96.13,0 -174.05,-77.92 -174.05,-174.05 0,-96.13 77.92,-174.05 174.05,-174.05zm12478 0c96.13,0 174.05,77.92 174.05,174.05 0,96.13 -77.92,174.05 -174.05,174.05 -96.13,0 -174.05,-77.92 -174.05,-174.05 0,-96.13 77.92,-174.05 174.05,-174.05zm-734 0c96.13,0 174.05,77.92 174.05,174.05 0,96.13 -77.92,174.05 -174.05,174.05 -96.13,0 -174.05,-77.92 -174.05,-174.05 0,-96.13 77.92,-174.05 174.05,-174.05zm-734 0c96.13,0 174.05,77.92 174.05,174.05 0,96.13 -77.92,174.05 -174.05,174.05 -96.13,0 -174.05,-77.92 -174.05,-174.05 0,-96.13 77.92,-174.05 174.05,-174.05zm-734 0c96.13,0 174.05,77.92 174.05,174.05 0,96.13 -77.92,174.05 -174.05,174.05 -96.13,0 -174.05,-77.92 -174.05,-174.05 0,-96.13 77.92,-174.05 174.05,-174.05zm-734 0c96.13,0 174.05,77.92 174.05,174.05 0,96.13 -77.92,174.05 -174.05,174.05 -96.13,0 -174.05,-77.92 -174.05,-174.05 0,-96.13 77.92,-174.05 174.05,-174.05zm-734 0c96.13,0 174.05,77.92 174.05,174.05 0,96.13 -77.92,174.05 -174.05,174.05 -96.13,0 -174.05,-77.92 -174.05,-174.05 0,-96.13 77.92,-174.05 174.05,-174.05zm-734 0c96.13,0 174.05,77.92 174.05,174.05 0,96.13 -77.92,174.05 -174.05,174.05 -96.13,0 -174.05,-77.92 -174.05,-174.05 0,-96.13 77.92,-174.05 174.05,-174.05zm-734 0c96.13,0 174.05,77.92 174.05,174.05 0,96.13 -77.92,174.05 -174.05,174.05 -96.13,0 -174.05,-77.92 -174.05,-174.05 0,-96.13 77.92,-174.05 174.05,-174.05zm-734 0c96.13,0 174.05,77.92 174.05,174.05 0,96.13 -77.92,174.05 -174.05,174.05 -96.13,0 -174.05,-77.92 -174.05,-174.05 0,-96.13 77.92,-174.05 174.05,-174.05zm-734 0c96.13,0 174.05,77.92 174.05,174.05 0,96.13 -77.92,174.05 -174.05,174.05 -96.13,0 -174.05,-77.92 -174.05,-174.05 0,-96.13 77.92,-174.05 174.05,-174.05zm-734 0c96.13,0 174.05,77.92 174.05,174.05 0,96.13 -77.92,174.05 -174.05,174.05 -96.13,0 -174.05,-77.92 -174.05,-174.05 0,-96.13 77.92,-174.05 174.05,-174.05zm-734 0c96.13,0 174.05,77.92 174.05,174.05 0,96.13 -77.92,174.05 -174.05,174.05 -96.13,0 -174.05,-77.92 -174.05,-174.05 0,-96.13 77.92,-174.05 174.05,-174.05zm-734 0c96.13,0 174.05,77.92 174.05,174.05 0,96.13 -77.92,174.05 -174.05,174.05 -96.13,0 -174.05,-77.92 -174.05,-174.05 0,-96.13 77.92,-174.05 174.05,-174.05zm-734 0c96.13,0 174.05,77.92 174.05,174.05 0,96.13 -77.92,174.05 -174.05,174.05 -96.13,0 -174.05,-77.92 -174.05,-174.05 0,-96.13 77.92,-174.05 174.05,-174.05zm-734 0c96.13,0 174.05,77.92 174.05,174.05 0,96.13 -77.92,174.05 -174.05,174.05 -96.13,0 -174.05,-77.92 -174.05,-174.05 0,-96.13 77.92,-174.05 174.05,-174.05zm-734 0c96.13,0 174.05,77.92 174.05,174.05 0,96.13 -77.92,174.05 -174.05,174.05 -96.13,0 -174.05,-77.92 -174.05,-174.05 0,-96.13 77.92,-174.05 174.05,-174.05zm-734 0c96.13,0 174.05,77.92 174.05,174.05 0,96.13 -77.92,174.05 -174.05,174.05 -96.13,0 -174.05,-77.92 -174.05,-174.05 0,-96.13 77.92,-174.05 174.05,-174.05zm-734 -645.19c96.13,0 174.05,77.92 174.05,174.05 0,96.13 -77.92,174.05 -174.05,174.05 -96.13,0 -174.05,-77.92 -174.05,-174.05 0,-96.13 77.92,-174.05 174.05,-174.05zm12478 0c96.13,0 174.05,77.92 174.05,174.05 0,96.13 -77.92,174.05 -174.05,174.05 -96.13,0 -174.05,-77.92 -174.05,-174.05 0,-96.13 77.92,-174.05 174.05,-174.05zm-734 0c96.13,0 174.05,77.92 174.05,174.05 0,96.13 -77.92,174.05 -174.05,174.05 -96.13,0 -174.05,-77.92 -174.05,-174.05 0,-96.13 77.92,-174.05 174.05,-174.05zm-734 0c96.13,0 174.05,77.92 174.05,174.05 0,96.13 -77.92,174.05 -174.05,174.05 -96.13,0 -174.05,-77.92 -174.05,-174.05 0,-96.13 77.92,-174.05 174.05,-174.05zm-734 0c96.13,0 174.05,77.92 174.05,174.05 0,96.13 -77.92,174.05 -174.05,174.05 -96.13,0 -174.05,-77.92 -174.05,-174.05 0,-96.13 77.92,-174.05 174.05,-174.05zm-734 0c96.13,0 174.05,77.92 174.05,174.05 0,96.13 -77.92,174.05 -174.05,174.05 -96.13,0 -174.05,-77.92 -174.05,-174.05 0,-96.13 77.92,-174.05 174.05,-174.05zm-734 0c96.13,0 174.05,77.92 174.05,174.05 0,96.13 -77.92,174.05 -174.05,174.05 -96.13,0 -174.05,-77.92 -174.05,-174.05 0,-96.13 77.92,-174.05 174.05,-174.05zm-734 0c96.13,0 174.05,77.92 174.05,174.05 0,96.13 -77.92,174.05 -174.05,174.05 -96.13,0 -174.05,-77.92 -174.05,-174.05 0,-96.13 77.92,-174.05 174.05,-174.05zm-734 0c96.13,0 174.05,77.92 174.05,174.05 0,96.13 -77.92,174.05 -174.05,174.05 -96.13,0 -174.05,-77.92 -174.05,-174.05 0,-96.13 77.92,-174.05 174.05,-174.05zm-734 0c96.13,0 174.05,77.92 174.05,174.05 0,96.13 -77.92,174.05 -174.05,174.05 -96.13,0 -174.05,-77.92 -174.05,-174.05 0,-96.13 77.92,-174.05 174.05,-174.05zm-734 0c96.13,0 174.05,77.92 174.05,174.05 0,96.13 -77.92,174.05 -174.05,174.05 -96.13,0 -174.05,-77.92 -174.05,-174.05 0,-96.13 77.92,-174.05 174.05,-174.05zm-734 0c96.13,0 174.05,77.92 174.05,174.05 0,96.13 -77.92,174.05 -174.05,174.05 -96.13,0 -174.05,-77.92 -174.05,-174.05 0,-96.13 77.92,-174.05 174.05,-174.05zm-734 0c96.13,0 174.05,77.92 174.05,174.05 0,96.13 -77.92,174.05 -174.05,174.05 -96.13,0 -174.05,-77.92 -174.05,-174.05 0,-96.13 77.92,-174.05 174.05,-174.05zm-734 0c96.13,0 174.05,77.92 174.05,174.05 0,96.13 -77.92,174.05 -174.05,174.05 -96.13,0 -174.05,-77.92 -174.05,-174.05 0,-96.13 77.92,-174.05 174.05,-174.05zm-734 0c96.13,0 174.05,77.92 174.05,174.05 0,96.13 -77.92,174.05 -174.05,174.05 -96.13,0 -174.05,-77.92 -174.05,-174.05 0,-96.13 77.92,-174.05 174.05,-174.05zm-734 0c96.13,0 174.05,77.92 174.05,174.05 0,96.13 -77.92,174.05 -174.05,174.05 -96.13,0 -174.05,-77.92 -174.05,-174.05 0,-96.13 77.92,-174.05 174.05,-174.05zm-734 0c96.13,0 174.05,77.92 174.05,174.05 0,96.13 -77.92,174.05 -174.05,174.05 -96.13,0 -174.05,-77.92 -174.05,-174.05 0,-96.13 77.92,-174.05 174.05,-174.05zm-734 0c96.13,0 174.05,77.92 174.05,174.05 0,96.13 -77.92,174.05 -174.05,174.05 -96.13,0 -174.05,-77.92 -174.05,-174.05 0,-96.13 77.92,-174.05 174.05,-174.05zm-734 -645.19c96.13,0 174.05,77.92 174.05,174.05 0,96.13 -77.92,174.05 -174.05,174.05 -96.13,0 -174.05,-77.92 -174.05,-174.05 0,-96.13 77.92,-174.05 174.05,-174.05zm12478 0c96.13,0 174.05,77.92 174.05,174.05 0,96.13 -77.92,174.05 -174.05,174.05 -96.13,0 -174.05,-77.92 -174.05,-174.05 0,-96.13 77.92,-174.05 174.05,-174.05zm-734 0c96.13,0 174.05,77.92 174.05,174.05 0,96.13 -77.92,174.05 -174.05,174.05 -96.13,0 -174.05,-77.92 -174.05,-174.05 0,-96.13 77.92,-174.05 174.05,-174.05zm-734 0c96.13,0 174.05,77.92 174.05,174.05 0,96.13 -77.92,174.05 -174.05,174.05 -96.13,0 -174.05,-77.92 -174.05,-174.05 0,-96.13 77.92,-174.05 174.05,-174.05zm-734 0c96.13,0 174.05,77.92 174.05,174.05 0,96.13 -77.92,174.05 -174.05,174.05 -96.13,0 -174.05,-77.92 -174.05,-174.05 0,-96.13 77.92,-174.05 174.05,-174.05zm-734 0c96.13,0 174.05,77.92 174.05,174.05 0,96.13 -77.92,174.05 -174.05,174.05 -96.13,0 -174.05,-77.92 -174.05,-174.05 0,-96.13 77.92,-174.05 174.05,-174.05zm-734 0c96.13,0 174.05,77.92 174.05,174.05 0,96.13 -77.92,174.05 -174.05,174.05 -96.13,0 -174.05,-77.92 -174.05,-174.05 0,-96.13 77.92,-174.05 174.05,-174.05zm-734 0c96.13,0 174.05,77.92 174.05,174.05 0,96.13 -77.92,174.05 -174.05,174.05 -96.13,0 -174.05,-77.92 -174.05,-174.05 0,-96.13 77.92,-174.05 174.05,-174.05zm-734 0c96.13,0 174.05,77.92 174.05,174.05 0,96.13 -77.92,174.05 -174.05,174.05 -96.13,0 -174.05,-77.92 -174.05,-174.05 0,-96.13 77.92,-174.05 174.05,-174.05zm-734 0c96.13,0 174.05,77.92 174.05,174.05 0,96.13 -77.92,174.05 -174.05,174.05 -96.13,0 -174.05,-77.92 -174.05,-174.05 0,-96.13 77.92,-174.05 174.05,-174.05zm-734 0c96.13,0 174.05,77.92 174.05,174.05 0,96.13 -77.92,174.05 -174.05,174.05 -96.13,0 -174.05,-77.92 -174.05,-174.05 0,-96.13 77.92,-174.05 174.05,-174.05zm-734 0c96.13,0 174.05,77.92 174.05,174.05 0,96.13 -77.92,174.05 -174.05,174.05 -96.13,0 -174.05,-77.92 -174.05,-174.05 0,-96.13 77.92,-174.05 174.05,-174.05zm-734 0c96.13,0 174.05,77.92 174.05,174.05 0,96.13 -77.92,174.05 -174.05,174.05 -96.13,0 -174.05,-77.92 -174.05,-174.05 0,-96.13 77.92,-174.05 174.05,-174.05zm-734 0c96.13,0 174.05,77.92 174.05,174.05 0,96.13 -77.92,174.05 -174.05,174.05 -96.13,0 -174.05,-77.92 -174.05,-174.05 0,-96.13 77.92,-174.05 174.05,-174.05zm-734 0c96.13,0 174.05,77.92 174.05,174.05 0,96.13 -77.92,174.05 -174.05,174.05 -96.13,0 -174.05,-77.92 -174.05,-174.05 0,-96.13 77.92,-174.05 174.05,-174.05zm-734 0c96.13,0 174.05,77.92 174.05,174.05 0,96.13 -77.92,174.05 -174.05,174.05 -96.13,0 -174.05,-77.92 -174.05,-174.05 0,-96.13 77.92,-174.05 174.05,-174.05zm-734 0c96.13,0 174.05,77.92 174.05,174.05 0,96.13 -77.92,174.05 -174.05,174.05 -96.13,0 -174.05,-77.92 -174.05,-174.05 0,-96.13 77.92,-174.05 174.05,-174.05zm-734 0c96.13,0 174.05,77.92 174.05,174.05 0,96.13 -77.92,174.05 -174.05,174.05 -96.13,0 -174.05,-77.92 -174.05,-174.05 0,-96.13 77.92,-174.05 174.05,-174.05zm-734 -645.19c96.13,0 174.05,77.92 174.05,174.05 0,96.13 -77.92,174.05 -174.05,174.05 -96.13,0 -174.05,-77.92 -174.05,-174.05 0,-96.13 77.92,-174.05 174.05,-174.05zm12478 0c96.13,0 174.05,77.92 174.05,174.05 0,96.13 -77.92,174.05 -174.05,174.05 -96.13,0 -174.05,-77.92 -174.05,-174.05 0,-96.13 77.92,-174.05 174.05,-174.05zm-734 0c96.13,0 174.05,77.92 174.05,174.05 0,96.13 -77.92,174.05 -174.05,174.05 -96.13,0 -174.05,-77.92 -174.05,-174.05 0,-96.13 77.92,-174.05 174.05,-174.05zm-734 0c96.13,0 174.05,77.92 174.05,174.05 0,96.13 -77.92,174.05 -174.05,174.05 -96.13,0 -174.05,-77.92 -174.05,-174.05 0,-96.13 77.92,-174.05 174.05,-174.05zm-734 0c96.13,0 174.05,77.92 174.05,174.05 0,96.13 -77.92,174.05 -174.05,174.05 -96.13,0 -174.05,-77.92 -174.05,-174.05 0,-96.13 77.92,-174.05 174.05,-174.05zm-734 0c96.13,0 174.05,77.92 174.05,174.05 0,96.13 -77.92,174.05 -174.05,174.05 -96.13,0 -174.05,-77.92 -174.05,-174.05 0,-96.13 77.92,-174.05 174.05,-174.05zm-734 0c96.13,0 174.05,77.92 174.05,174.05 0,96.13 -77.92,174.05 -174.05,174.05 -96.13,0 -174.05,-77.92 -174.05,-174.05 0,-96.13 77.92,-174.05 174.05,-174.05zm-734 0c96.13,0 174.05,77.92 174.05,174.05 0,96.13 -77.92,174.05 -174.05,174.05 -96.13,0 -174.05,-77.92 -174.05,-174.05 0,-96.13 77.92,-174.05 174.05,-174.05zm-734 0c96.13,0 174.05,77.92 174.05,174.05 0,96.13 -77.92,174.05 -174.05,174.05 -96.13,0 -174.05,-77.92 -174.05,-174.05 0,-96.13 77.92,-174.05 174.05,-174.05zm-734 0c96.13,0 174.05,77.92 174.05,174.05 0,96.13 -77.92,174.05 -174.05,174.05 -96.13,0 -174.05,-77.92 -174.05,-174.05 0,-96.13 77.92,-174.05 174.05,-174.05zm-734 0c96.13,0 174.05,77.92 174.05,174.05 0,96.13 -77.92,174.05 -174.05,174.05 -96.13,0 -174.05,-77.92 -174.05,-174.05 0,-96.13 77.92,-174.05 174.05,-174.05zm-734 0c96.13,0 174.05,77.92 174.05,174.05 0,96.13 -77.92,174.05 -174.05,174.05 -96.13,0 -174.05,-77.92 -174.05,-174.05 0,-96.13 77.92,-174.05 174.05,-174.05zm-734 0c96.13,0 174.05,77.92 174.05,174.05 0,96.13 -77.92,174.05 -174.05,174.05 -96.13,0 -174.05,-77.92 -174.05,-174.05 0,-96.13 77.92,-174.05 174.05,-174.05zm-734 0c96.13,0 174.05,77.92 174.05,174.05 0,96.13 -77.92,174.05 -174.05,174.05 -96.13,0 -174.05,-77.92 -174.05,-174.05 0,-96.13 77.92,-174.05 174.05,-174.05zm-734 0c96.13,0 174.05,77.92 174.05,174.05 0,96.13 -77.92,174.05 -174.05,174.05 -96.13,0 -174.05,-77.92 -174.05,-174.05 0,-96.13 77.92,-174.05 174.05,-174.05zm-734 0c96.13,0 174.05,77.92 174.05,174.05 0,96.13 -77.92,174.05 -174.05,174.05 -96.13,0 -174.05,-77.92 -174.05,-174.05 0,-96.13 77.92,-174.05 174.05,-174.05zm-734 0c96.13,0 174.05,77.92 174.05,174.05 0,96.13 -77.92,174.05 -174.05,174.05 -96.13,0 -174.05,-77.92 -174.05,-174.05 0,-96.13 77.92,-174.05 174.05,-174.05zm-734 0c96.13,0 174.05,77.92 174.05,174.05 0,96.13 -77.92,174.05 -174.05,174.05 -96.13,0 -174.05,-77.92 -174.05,-174.05 0,-96.13 77.92,-174.05 174.05,-174.05zm-734 -645.19c96.13,0 174.05,77.92 174.05,174.05 0,96.13 -77.92,174.05 -174.05,174.05 -96.13,0 -174.05,-77.92 -174.05,-174.05 0,-96.13 77.92,-174.05 174.05,-174.05zm12478 0c96.13,0 174.05,77.92 174.05,174.05 0,96.13 -77.92,174.05 -174.05,174.05 -96.13,0 -174.05,-77.92 -174.05,-174.05 0,-96.13 77.92,-174.05 174.05,-174.05zm-734 0c96.13,0 174.05,77.92 174.05,174.05 0,96.13 -77.92,174.05 -174.05,174.05 -96.13,0 -174.05,-77.92 -174.05,-174.05 0,-96.13 77.92,-174.05 174.05,-174.05zm-734 0c96.13,0 174.05,77.92 174.05,174.05 0,96.13 -77.92,174.05 -174.05,174.05 -96.13,0 -174.05,-77.92 -174.05,-174.05 0,-96.13 77.92,-174.05 174.05,-174.05zm-734 0c96.13,0 174.05,77.92 174.05,174.05 0,96.13 -77.92,174.05 -174.05,174.05 -96.13,0 -174.05,-77.92 -174.05,-174.05 0,-96.13 77.92,-174.05 174.05,-174.05zm-734 0c96.13,0 174.05,77.92 174.05,174.05 0,96.13 -77.92,174.05 -174.05,174.05 -96.13,0 -174.05,-77.92 -174.05,-174.05 0,-96.13 77.92,-174.05 174.05,-174.05zm-734 0c96.13,0 174.05,77.92 174.05,174.05 0,96.13 -77.92,174.05 -174.05,174.05 -96.13,0 -174.05,-77.92 -174.05,-174.05 0,-96.13 77.92,-174.05 174.05,-174.05zm-734 0c96.13,0 174.05,77.92 174.05,174.05 0,96.13 -77.92,174.05 -174.05,174.05 -96.13,0 -174.05,-77.92 -174.05,-174.05 0,-96.13 77.92,-174.05 174.05,-174.05zm-734 0c96.13,0 174.05,77.92 174.05,174.05 0,96.13 -77.92,174.05 -174.05,174.05 -96.13,0 -174.05,-77.92 -174.05,-174.05 0,-96.13 77.92,-174.05 174.05,-174.05zm-734 0c96.13,0 174.05,77.92 174.05,174.05 0,96.13 -77.92,174.05 -174.05,174.05 -96.13,0 -174.05,-77.92 -174.05,-174.05 0,-96.13 77.92,-174.05 174.05,-174.05zm-734 0c96.13,0 174.05,77.92 174.05,174.05 0,96.13 -77.92,174.05 -174.05,174.05 -96.13,0 -174.05,-77.92 -174.05,-174.05 0,-96.13 77.92,-174.05 174.05,-174.05zm-734 0c96.13,0 174.05,77.92 174.05,174.05 0,96.13 -77.92,174.05 -174.05,174.05 -96.13,0 -174.05,-77.92 -174.05,-174.05 0,-96.13 77.92,-174.05 174.05,-174.05zm-734 0c96.13,0 174.05,77.92 174.05,174.05 0,96.13 -77.92,174.05 -174.05,174.05 -96.13,0 -174.05,-77.92 -174.05,-174.05 0,-96.13 77.92,-174.05 174.05,-174.05zm-734 0c96.13,0 174.05,77.92 174.05,174.05 0,96.13 -77.92,174.05 -174.05,174.05 -96.13,0 -174.05,-77.92 -174.05,-174.05 0,-96.13 77.92,-174.05 174.05,-174.05zm-734 0c96.13,0 174.05,77.92 174.05,174.05 0,96.13 -77.92,174.05 -174.05,174.05 -96.13,0 -174.05,-77.92 -174.05,-174.05 0,-96.13 77.92,-174.05 174.05,-174.05zm-734 0c96.13,0 174.05,77.92 174.05,174.05 0,96.13 -77.92,174.05 -174.05,174.05 -96.13,0 -174.05,-77.92 -174.05,-174.05 0,-96.13 77.92,-174.05 174.05,-174.05zm-734 0c96.13,0 174.05,77.92 174.05,174.05 0,96.13 -77.92,174.05 -174.05,174.05 -96.13,0 -174.05,-77.92 -174.05,-174.05 0,-96.13 77.92,-174.05 174.05,-174.05zm-734 0c96.13,0 174.05,77.92 174.05,174.05 0,96.13 -77.92,174.05 -174.05,174.05 -96.13,0 -174.05,-77.92 -174.05,-174.05 0,-96.13 77.92,-174.05 174.05,-174.05zm-734 -645.19c96.13,0 174.05,77.92 174.05,174.05 0,96.13 -77.92,174.05 -174.05,174.05 -96.13,0 -174.05,-77.92 -174.05,-174.05 0,-96.13 77.92,-174.05 174.05,-174.05zm12478 0c96.13,0 174.05,77.92 174.05,174.05 0,96.13 -77.92,174.05 -174.05,174.05 -96.13,0 -174.05,-77.92 -174.05,-174.05 0,-96.13 77.92,-174.05 174.05,-174.05zm-734 0c96.13,0 174.05,77.92 174.05,174.05 0,96.13 -77.92,174.05 -174.05,174.05 -96.13,0 -174.05,-77.92 -174.05,-174.05 0,-96.13 77.92,-174.05 174.05,-174.05zm-734 0c96.13,0 174.05,77.92 174.05,174.05 0,96.13 -77.92,174.05 -174.05,174.05 -96.13,0 -174.05,-77.92 -174.05,-174.05 0,-96.13 77.92,-174.05 174.05,-174.05zm-734 0c96.13,0 174.05,77.92 174.05,174.05 0,96.13 -77.92,174.05 -174.05,174.05 -96.13,0 -174.05,-77.92 -174.05,-174.05 0,-96.13 77.92,-174.05 174.05,-174.05zm-734 0c96.13,0 174.05,77.92 174.05,174.05 0,96.13 -77.92,174.05 -174.05,174.05 -96.13,0 -174.05,-77.92 -174.05,-174.05 0,-96.13 77.92,-174.05 174.05,-174.05zm-734 0c96.13,0 174.05,77.92 174.05,174.05 0,96.13 -77.92,174.05 -174.05,174.05 -96.13,0 -174.05,-77.92 -174.05,-174.05 0,-96.13 77.92,-174.05 174.05,-174.05zm-734 0c96.13,0 174.05,77.92 174.05,174.05 0,96.13 -77.92,174.05 -174.05,174.05 -96.13,0 -174.05,-77.92 -174.05,-174.05 0,-96.13 77.92,-174.05 174.05,-174.05zm-734 0c96.13,0 174.05,77.92 174.05,174.05 0,96.13 -77.92,174.05 -174.05,174.05 -96.13,0 -174.05,-77.92 -174.05,-174.05 0,-96.13 77.92,-174.05 174.05,-174.05zm-734 0c96.13,0 174.05,77.92 174.05,174.05 0,96.13 -77.92,174.05 -174.05,174.05 -96.13,0 -174.05,-77.92 -174.05,-174.05 0,-96.13 77.92,-174.05 174.05,-174.05zm-734 0c96.13,0 174.05,77.92 174.05,174.05 0,96.13 -77.92,174.05 -174.05,174.05 -96.13,0 -174.05,-77.92 -174.05,-174.05 0,-96.13 77.92,-174.05 174.05,-174.05zm-734 0c96.13,0 174.05,77.92 174.05,174.05 0,96.13 -77.92,174.05 -174.05,174.05 -96.13,0 -174.05,-77.92 -174.05,-174.05 0,-96.13 77.92,-174.05 174.05,-174.05zm-734 0c96.13,0 174.05,77.92 174.05,174.05 0,96.13 -77.92,174.05 -174.05,174.05 -96.13,0 -174.05,-77.92 -174.05,-174.05 0,-96.13 77.92,-174.05 174.05,-174.05zm-734 0c96.13,0 174.05,77.92 174.05,174.05 0,96.13 -77.92,174.05 -174.05,174.05 -96.13,0 -174.05,-77.92 -174.05,-174.05 0,-96.13 77.92,-174.05 174.05,-174.05zm-734 0c96.13,0 174.05,77.92 174.05,174.05 0,96.13 -77.92,174.05 -174.05,174.05 -96.13,0 -174.05,-77.92 -174.05,-174.05 0,-96.13 77.92,-174.05 174.05,-174.05zm-734 0c96.13,0 174.05,77.92 174.05,174.05 0,96.13 -77.92,174.05 -174.05,174.05 -96.13,0 -174.05,-77.92 -174.05,-174.05 0,-96.13 77.92,-174.05 174.05,-174.05zm-734 0c96.13,0 174.05,77.92 174.05,174.05 0,96.13 -77.92,174.05 -174.05,174.05 -96.13,0 -174.05,-77.92 -174.05,-174.05 0,-96.13 77.92,-174.05 174.05,-174.05zm-734 0c96.13,0 174.05,77.92 174.05,174.05 0,96.13 -77.92,174.05 -174.05,174.05 -96.13,0 -174.05,-77.92 -174.05,-174.05 0,-96.13 77.92,-174.05 174.05,-174.05zm-734 -645.19c96.13,0 174.05,77.92 174.05,174.05 0,96.13 -77.92,174.05 -174.05,174.05 -96.13,0 -174.05,-77.92 -174.05,-174.05 0,-96.13 77.92,-174.05 174.05,-174.05zm12478 0c96.13,0 174.05,77.92 174.05,174.05 0,96.13 -77.92,174.05 -174.05,174.05 -96.13,0 -174.05,-77.92 -174.05,-174.05 0,-96.13 77.92,-174.05 174.05,-174.05zm-734 0c96.13,0 174.05,77.92 174.05,174.05 0,96.13 -77.92,174.05 -174.05,174.05 -96.13,0 -174.05,-77.92 -174.05,-174.05 0,-96.13 77.92,-174.05 174.05,-174.05zm-734 0c96.13,0 174.05,77.92 174.05,174.05 0,96.13 -77.92,174.05 -174.05,174.05 -96.13,0 -174.05,-77.92 -174.05,-174.05 0,-96.13 77.92,-174.05 174.05,-174.05zm-734 0c96.13,0 174.05,77.92 174.05,174.05 0,96.13 -77.92,174.05 -174.05,174.05 -96.13,0 -174.05,-77.92 -174.05,-174.05 0,-96.13 77.92,-174.05 174.05,-174.05zm-734 0c96.13,0 174.05,77.92 174.05,174.05 0,96.13 -77.92,174.05 -174.05,174.05 -96.13,0 -174.05,-77.92 -174.05,-174.05 0,-96.13 77.92,-174.05 174.05,-174.05zm-734 0c96.13,0 174.05,77.92 174.05,174.05 0,96.13 -77.92,174.05 -174.05,174.05 -96.13,0 -174.05,-77.92 -174.05,-174.05 0,-96.13 77.92,-174.05 174.05,-174.05zm-734 0c96.13,0 174.05,77.92 174.05,174.05 0,96.13 -77.92,174.05 -174.05,174.05 -96.13,0 -174.05,-77.92 -174.05,-174.05 0,-96.13 77.92,-174.05 174.05,-174.05zm-734 0c96.13,0 174.05,77.92 174.05,174.05 0,96.13 -77.92,174.05 -174.05,174.05 -96.13,0 -174.05,-77.92 -174.05,-174.05 0,-96.13 77.92,-174.05 174.05,-174.05zm-734 0c96.13,0 174.05,77.92 174.05,174.05 0,96.13 -77.92,174.05 -174.05,174.05 -96.13,0 -174.05,-77.92 -174.05,-174.05 0,-96.13 77.92,-174.05 174.05,-174.05zm-734 0c96.13,0 174.05,77.92 174.05,174.05 0,96.13 -77.92,174.05 -174.05,174.05 -96.13,0 -174.05,-77.92 -174.05,-174.05 0,-96.13 77.92,-174.05 174.05,-174.05zm-734 0c96.13,0 174.05,77.92 174.05,174.05 0,96.13 -77.92,174.05 -174.05,174.05 -96.13,0 -174.05,-77.92 -174.05,-174.05 0,-96.13 77.92,-174.05 174.05,-174.05zm-734 0c96.13,0 174.05,77.92 174.05,174.05 0,96.13 -77.92,174.05 -174.05,174.05 -96.13,0 -174.05,-77.92 -174.05,-174.05 0,-96.13 77.92,-174.05 174.05,-174.05zm-734 0c96.13,0 174.05,77.92 174.05,174.05 0,96.13 -77.92,174.05 -174.05,174.05 -96.13,0 -174.05,-77.92 -174.05,-174.05 0,-96.13 77.92,-174.05 174.05,-174.05zm-734 0c96.13,0 174.05,77.92 174.05,174.05 0,96.13 -77.92,174.05 -174.05,174.05 -96.13,0 -174.05,-77.92 -174.05,-174.05 0,-96.13 77.92,-174.05 174.05,-174.05zm-734 0c96.13,0 174.05,77.92 174.05,174.05 0,96.13 -77.92,174.05 -174.05,174.05 -96.13,0 -174.05,-77.92 -174.05,-174.05 0,-96.13 77.92,-174.05 174.05,-174.05zm-734 0c96.13,0 174.05,77.92 174.05,174.05 0,96.13 -77.92,174.05 -174.05,174.05 -96.13,0 -174.05,-77.92 -174.05,-174.05 0,-96.13 77.92,-174.05 174.05,-174.05zm-734 0c96.13,0 174.05,77.92 174.05,174.05 0,96.13 -77.92,174.05 -174.05,174.05 -96.13,0 -174.05,-77.92 -174.05,-174.05 0,-96.13 77.92,-174.05 174.05,-174.05zm-734 -645.19c96.13,0 174.05,77.92 174.05,174.05 0,96.13 -77.92,174.05 -174.05,174.05 -96.13,0 -174.05,-77.92 -174.05,-174.05 0,-96.13 77.92,-174.05 174.05,-174.05zm12478 0c96.13,0 174.05,77.92 174.05,174.05 0,96.13 -77.92,174.05 -174.05,174.05 -96.13,0 -174.05,-77.92 -174.05,-174.05 0,-96.13 77.92,-174.05 174.05,-174.05zm-734 0c96.13,0 174.05,77.92 174.05,174.05 0,96.13 -77.92,174.05 -174.05,174.05 -96.13,0 -174.05,-77.92 -174.05,-174.05 0,-96.13 77.92,-174.05 174.05,-174.05zm-734 0c96.13,0 174.05,77.92 174.05,174.05 0,96.13 -77.92,174.05 -174.05,174.05 -96.13,0 -174.05,-77.92 -174.05,-174.05 0,-96.13 77.92,-174.05 174.05,-174.05zm-734 0c96.13,0 174.05,77.92 174.05,174.05 0,96.13 -77.92,174.05 -174.05,174.05 -96.13,0 -174.05,-77.92 -174.05,-174.05 0,-96.13 77.92,-174.05 174.05,-174.05zm-734 0c96.13,0 174.05,77.92 174.05,174.05 0,96.13 -77.92,174.05 -174.05,174.05 -96.13,0 -174.05,-77.92 -174.05,-174.05 0,-96.13 77.92,-174.05 174.05,-174.05zm-734 0c96.13,0 174.05,77.92 174.05,174.05 0,96.13 -77.92,174.05 -174.05,174.05 -96.13,0 -174.05,-77.92 -174.05,-174.05 0,-96.13 77.92,-174.05 174.05,-174.05zm-734 0c96.13,0 174.05,77.92 174.05,174.05 0,96.13 -77.92,174.05 -174.05,174.05 -96.13,0 -174.05,-77.92 -174.05,-174.05 0,-96.13 77.92,-174.05 174.05,-174.05zm-734 0c96.13,0 174.05,77.92 174.05,174.05 0,96.13 -77.92,174.05 -174.05,174.05 -96.13,0 -174.05,-77.92 -174.05,-174.05 0,-96.13 77.92,-174.05 174.05,-174.05zm-734 0c96.13,0 174.05,77.92 174.05,174.05 0,96.13 -77.92,174.05 -174.05,174.05 -96.13,0 -174.05,-77.92 -174.05,-174.05 0,-96.13 77.92,-174.05 174.05,-174.05zm-734 0c96.13,0 174.05,77.92 174.05,174.05 0,96.13 -77.92,174.05 -174.05,174.05 -96.13,0 -174.05,-77.92 -174.05,-174.05 0,-96.13 77.92,-174.05 174.05,-174.05zm-734 0c96.13,0 174.05,77.92 174.05,174.05 0,96.13 -77.92,174.05 -174.05,174.05 -96.13,0 -174.05,-77.92 -174.05,-174.05 0,-96.13 77.92,-174.05 174.05,-174.05zm-734 0c96.13,0 174.05,77.92 174.05,174.05 0,96.13 -77.92,174.05 -174.05,174.05 -96.13,0 -174.05,-77.92 -174.05,-174.05 0,-96.13 77.92,-174.05 174.05,-174.05zm-734 0c96.13,0 174.05,77.92 174.05,174.05 0,96.13 -77.92,174.05 -174.05,174.05 -96.13,0 -174.05,-77.92 -174.05,-174.05 0,-96.13 77.92,-174.05 174.05,-174.05zm-734 0c96.13,0 174.05,77.92 174.05,174.05 0,96.13 -77.92,174.05 -174.05,174.05 -96.13,0 -174.05,-77.92 -174.05,-174.05 0,-96.13 77.92,-174.05 174.05,-174.05zm-734 0c96.13,0 174.05,77.92 174.05,174.05 0,96.13 -77.92,174.05 -174.05,174.05 -96.13,0 -174.05,-77.92 -174.05,-174.05 0,-96.13 77.92,-174.05 174.05,-174.05zm-734 0c96.13,0 174.05,77.92 174.05,174.05 0,96.13 -77.92,174.05 -174.05,174.05 -96.13,0 -174.05,-77.92 -174.05,-174.05 0,-96.13 77.92,-174.05 174.05,-174.05zm-734 0c96.13,0 174.05,77.92 174.05,174.05 0,96.13 -77.92,174.05 -174.05,174.05 -96.13,0 -174.05,-77.92 -174.05,-174.05 0,-96.13 77.92,-174.05 174.05,-174.05zm-734 -645.19c96.13,0 174.05,77.92 174.05,174.05 0,96.13 -77.92,174.05 -174.05,174.05 -96.13,0 -174.05,-77.92 -174.05,-174.05 0,-96.13 77.92,-174.05 174.05,-174.05zm12478 0c96.13,0 174.05,77.92 174.05,174.05 0,96.13 -77.92,174.05 -174.05,174.05 -96.13,0 -174.05,-77.92 -174.05,-174.05 0,-96.13 77.92,-174.05 174.05,-174.05zm-734 0c96.13,0 174.05,77.92 174.05,174.05 0,96.13 -77.92,174.05 -174.05,174.05 -96.13,0 -174.05,-77.92 -174.05,-174.05 0,-96.13 77.92,-174.05 174.05,-174.05zm-734 0c96.13,0 174.05,77.92 174.05,174.05 0,96.13 -77.92,174.05 -174.05,174.05 -96.13,0 -174.05,-77.92 -174.05,-174.05 0,-96.13 77.92,-174.05 174.05,-174.05zm-734 0c96.13,0 174.05,77.92 174.05,174.05 0,96.13 -77.92,174.05 -174.05,174.05 -96.13,0 -174.05,-77.92 -174.05,-174.05 0,-96.13 77.92,-174.05 174.05,-174.05zm-734 0c96.13,0 174.05,77.92 174.05,174.05 0,96.13 -77.92,174.05 -174.05,174.05 -96.13,0 -174.05,-77.92 -174.05,-174.05 0,-96.13 77.92,-174.05 174.05,-174.05zm-734 0c96.13,0 174.05,77.92 174.05,174.05 0,96.13 -77.92,174.05 -174.05,174.05 -96.13,0 -174.05,-77.92 -174.05,-174.05 0,-96.13 77.92,-174.05 174.05,-174.05zm-734 0c96.13,0 174.05,77.92 174.05,174.05 0,96.13 -77.92,174.05 -174.05,174.05 -96.13,0 -174.05,-77.92 -174.05,-174.05 0,-96.13 77.92,-174.05 174.05,-174.05zm-734 0c96.13,0 174.05,77.92 174.05,174.05 0,96.13 -77.92,174.05 -174.05,174.05 -96.13,0 -174.05,-77.92 -174.05,-174.05 0,-96.13 77.92,-174.05 174.05,-174.05zm-734 0c96.13,0 174.05,77.92 174.05,174.05 0,96.13 -77.92,174.05 -174.05,174.05 -96.13,0 -174.05,-77.92 -174.05,-174.05 0,-96.13 77.92,-174.05 174.05,-174.05zm-734 0c96.13,0 174.05,77.92 174.05,174.05 0,96.13 -77.92,174.05 -174.05,174.05 -96.13,0 -174.05,-77.92 -174.05,-174.05 0,-96.13 77.92,-174.05 174.05,-174.05zm-734 0c96.13,0 174.05,77.92 174.05,174.05 0,96.13 -77.92,174.05 -174.05,174.05 -96.13,0 -174.05,-77.92 -174.05,-174.05 0,-96.13 77.92,-174.05 174.05,-174.05zm-734 0c96.13,0 174.05,77.92 174.05,174.05 0,96.13 -77.92,174.05 -174.05,174.05 -96.13,0 -174.05,-77.92 -174.05,-174.05 0,-96.13 77.92,-174.05 174.05,-174.05zm-734 0c96.13,0 174.05,77.92 174.05,174.05 0,96.13 -77.92,174.05 -174.05,174.05 -96.13,0 -174.05,-77.92 -174.05,-174.05 0,-96.13 77.92,-174.05 174.05,-174.05zm-734 0c96.13,0 174.05,77.92 174.05,174.05 0,96.13 -77.92,174.05 -174.05,174.05 -96.13,0 -174.05,-77.92 -174.05,-174.05 0,-96.13 77.92,-174.05 174.05,-174.05zm-734 0c96.13,0 174.05,77.92 174.05,174.05 0,96.13 -77.92,174.05 -174.05,174.05 -96.13,0 -174.05,-77.92 -174.05,-174.05 0,-96.13 77.92,-174.05 174.05,-174.05zm-734 0c96.13,0 174.05,77.92 174.05,174.05 0,96.13 -77.92,174.05 -174.05,174.05 -96.13,0 -174.05,-77.92 -174.05,-174.05 0,-96.13 77.92,-174.05 174.05,-174.05zm-734 0c96.13,0 174.05,77.92 174.05,174.05 0,96.13 -77.92,174.05 -174.05,174.05 -96.13,0 -174.05,-77.92 -174.05,-174.05 0,-96.13 77.92,-174.05 174.05,-174.05zm-734 -645.19c96.13,0 174.05,77.92 174.05,174.05 0,96.13 -77.92,174.05 -174.05,174.05 -96.13,0 -174.05,-77.92 -174.05,-174.05 0,-96.13 77.92,-174.05 174.05,-174.05zm12478 0c96.13,0 174.05,77.92 174.05,174.05 0,96.13 -77.92,174.05 -174.05,174.05 -96.13,0 -174.05,-77.92 -174.05,-174.05 0,-96.13 77.92,-174.05 174.05,-174.05zm-734 0c96.13,0 174.05,77.92 174.05,174.05 0,96.13 -77.92,174.05 -174.05,174.05 -96.13,0 -174.05,-77.92 -174.05,-174.05 0,-96.13 77.92,-174.05 174.05,-174.05zm-734 0c96.13,0 174.05,77.92 174.05,174.05 0,96.13 -77.92,174.05 -174.05,174.05 -96.13,0 -174.05,-77.92 -174.05,-174.05 0,-96.13 77.92,-174.05 174.05,-174.05zm-734 0c96.13,0 174.05,77.92 174.05,174.05 0,96.13 -77.92,174.05 -174.05,174.05 -96.13,0 -174.05,-77.92 -174.05,-174.05 0,-96.13 77.92,-174.05 174.05,-174.05zm-734 0c96.13,0 174.05,77.92 174.05,174.05 0,96.13 -77.92,174.05 -174.05,174.05 -96.13,0 -174.05,-77.92 -174.05,-174.05 0,-96.13 77.92,-174.05 174.05,-174.05zm-6606 0c96.13,0 174.05,77.92 174.05,174.05 0,96.13 -77.92,174.05 -174.05,174.05 -96.13,0 -174.05,-77.92 -174.05,-174.05 0,-96.13 77.92,-174.05 174.05,-174.05zm-734 0c96.13,0 174.05,77.92 174.05,174.05 0,96.13 -77.92,174.05 -174.05,174.05 -96.13,0 -174.05,-77.92 -174.05,-174.05 0,-96.13 77.92,-174.05 174.05,-174.05zm-734 0c96.13,0 174.05,77.92 174.05,174.05 0,96.13 -77.92,174.05 -174.05,174.05 -96.13,0 -174.05,-77.92 -174.05,-174.05 0,-96.13 77.92,-174.05 174.05,-174.05zm-734 0c96.13,0 174.05,77.92 174.05,174.05 0,96.13 -77.92,174.05 -174.05,174.05 -96.13,0 -174.05,-77.92 -174.05,-174.05 0,-96.13 77.92,-174.05 174.05,-174.05zm-734 -645.19c96.13,0 174.05,77.92 174.05,174.05 0,96.13 -77.92,174.05 -174.05,174.05 -96.13,0 -174.05,-77.92 -174.05,-174.05 0,-96.13 77.92,-174.05 174.05,-174.05zm12478 0c96.13,0 174.05,77.92 174.05,174.05 0,96.13 -77.92,174.05 -174.05,174.05 -96.13,0 -174.05,-77.92 -174.05,-174.05 0,-96.13 77.92,-174.05 174.05,-174.05zm-734 0c96.13,0 174.05,77.92 174.05,174.05 0,96.13 -77.92,174.05 -174.05,174.05 -96.13,0 -174.05,-77.92 -174.05,-174.05 0,-96.13 77.92,-174.05 174.05,-174.05zm-734 0c96.13,0 174.05,77.92 174.05,174.05 0,96.13 -77.92,174.05 -174.05,174.05 -96.13,0 -174.05,-77.92 -174.05,-174.05 0,-96.13 77.92,-174.05 174.05,-174.05zm-734 0c96.13,0 174.05,77.92 174.05,174.05 0,96.13 -77.92,174.05 -174.05,174.05 -96.13,0 -174.05,-77.92 -174.05,-174.05 0,-96.13 77.92,-174.05 174.05,-174.05zm-734 0c96.13,0 174.05,77.92 174.05,174.05 0,96.13 -77.92,174.05 -174.05,174.05 -96.13,0 -174.05,-77.92 -174.05,-174.05 0,-96.13 77.92,-174.05 174.05,-174.05zm-6606 0c96.13,0 174.05,77.92 174.05,174.05 0,96.13 -77.92,174.05 -174.05,174.05 -96.13,0 -174.05,-77.92 -174.05,-174.05 0,-96.13 77.92,-174.05 174.05,-174.05zm-734 0c96.13,0 174.05,77.92 174.05,174.05 0,96.13 -77.92,174.05 -174.05,174.05 -96.13,0 -174.05,-77.92 -174.05,-174.05 0,-96.13 77.92,-174.05 174.05,-174.05zm-734 0c96.13,0 174.05,77.92 174.05,174.05 0,96.13 -77.92,174.05 -174.05,174.05 -96.13,0 -174.05,-77.92 -174.05,-174.05 0,-96.13 77.92,-174.05 174.05,-174.05zm-734 0c96.13,0 174.05,77.92 174.05,174.05 0,96.13 -77.92,174.05 -174.05,174.05 -96.13,0 -174.05,-77.92 -174.05,-174.05 0,-96.13 77.92,-174.05 174.05,-174.05zm-734 -645.19c96.13,0 174.05,77.92 174.05,174.05 0,96.13 -77.92,174.05 -174.05,174.05 -96.13,0 -174.05,-77.92 -174.05,-174.05 0,-96.13 77.92,-174.05 174.05,-174.05zm12478 0c96.13,0 174.05,77.92 174.05,174.05 0,96.13 -77.92,174.05 -174.05,174.05 -96.13,0 -174.05,-77.92 -174.05,-174.05 0,-96.13 77.92,-174.05 174.05,-174.05zm-734 0c96.13,0 174.05,77.92 174.05,174.05 0,96.13 -77.92,174.05 -174.05,174.05 -96.13,0 -174.05,-77.92 -174.05,-174.05 0,-96.13 77.92,-174.05 174.05,-174.05zm-734 0c96.13,0 174.05,77.92 174.05,174.05 0,96.13 -77.92,174.05 -174.05,174.05 -96.13,0 -174.05,-77.92 -174.05,-174.05 0,-96.13 77.92,-174.05 174.05,-174.05zm-734 0c96.13,0 174.05,77.92 174.05,174.05 0,96.13 -77.92,174.05 -174.05,174.05 -96.13,0 -174.05,-77.92 -174.05,-174.05 0,-96.13 77.92,-174.05 174.05,-174.05zm-734 0c96.13,0 174.05,77.92 174.05,174.05 0,96.13 -77.92,174.05 -174.05,174.05 -96.13,0 -174.05,-77.92 -174.05,-174.05 0,-96.13 77.92,-174.05 174.05,-174.05zm-6606 0c96.13,0 174.05,77.92 174.05,174.05 0,96.13 -77.92,174.05 -174.05,174.05 -96.13,0 -174.05,-77.92 -174.05,-174.05 0,-96.13 77.92,-174.05 174.05,-174.05zm-734 0c96.13,0 174.05,77.92 174.05,174.05 0,96.13 -77.92,174.05 -174.05,174.05 -96.13,0 -174.05,-77.92 -174.05,-174.05 0,-96.13 77.92,-174.05 174.05,-174.05zm-734 0c96.13,0 174.05,77.92 174.05,174.05 0,96.13 -77.92,174.05 -174.05,174.05 -96.13,0 -174.05,-77.92 -174.05,-174.05 0,-96.13 77.92,-174.05 174.05,-174.05zm-734 0c96.13,0 174.05,77.92 174.05,174.05 0,96.13 -77.92,174.05 -174.05,174.05 -96.13,0 -174.05,-77.92 -174.05,-174.05 0,-96.13 77.92,-174.05 174.05,-174.05zm11744 -645.19c96.13,0 174.05,77.92 174.05,174.05 0,96.13 -77.92,174.05 -174.05,174.05 -96.13,0 -174.05,-77.92 -174.05,-174.05 0,-96.13 77.92,-174.05 174.05,-174.05zm-734 0c96.13,0 174.05,77.92 174.05,174.05 0,96.13 -77.92,174.05 -174.05,174.05 -96.13,0 -174.05,-77.92 -174.05,-174.05 0,-96.13 77.92,-174.05 174.05,-174.05zm-734 0c96.13,0 174.05,77.92 174.05,174.05 0,96.13 -77.92,174.05 -174.05,174.05 -96.13,0 -174.05,-77.92 -174.05,-174.05 0,-96.13 77.92,-174.05 174.05,-174.05zm-734 0c96.13,0 174.05,77.92 174.05,174.05 0,96.13 -77.92,174.05 -174.05,174.05 -96.13,0 -174.05,-77.92 -174.05,-174.05 0,-96.13 77.92,-174.05 174.05,-174.05zm-734 0c96.13,0 174.05,77.92 174.05,174.05 0,96.13 -77.92,174.05 -174.05,174.05 -96.13,0 -174.05,-77.92 -174.05,-174.05 0,-96.13 77.92,-174.05 174.05,-174.05zm-734 0c96.13,0 174.05,77.92 174.05,174.05 0,96.13 -77.92,174.05 -174.05,174.05 -96.13,0 -174.05,-77.92 -174.05,-174.05 0,-96.13 77.92,-174.05 174.05,-174.05zm-734 0c96.13,0 174.05,77.92 174.05,174.05 0,96.13 -77.92,174.05 -174.05,174.05 -96.13,0 -174.05,-77.92 -174.05,-174.05 0,-96.13 77.92,-174.05 174.05,-174.05zm-734 0c96.13,0 174.05,77.92 174.05,174.05 0,96.13 -77.92,174.05 -174.05,174.05 -96.13,0 -174.05,-77.92 -174.05,-174.05 0,-96.13 77.92,-174.05 174.05,-174.05zm-734 0c96.13,0 174.05,77.92 174.05,174.05 0,96.13 -77.92,174.05 -174.05,174.05 -96.13,0 -174.05,-77.92 -174.05,-174.05 0,-96.13 77.92,-174.05 174.05,-174.05zm-734 0c96.13,0 174.05,77.92 174.05,174.05 0,96.13 -77.92,174.05 -174.05,174.05 -96.13,0 -174.05,-77.92 -174.05,-174.05 0,-96.13 77.92,-174.05 174.05,-174.05zm-734 0c96.13,0 174.05,77.92 174.05,174.05 0,96.13 -77.92,174.05 -174.05,174.05 -96.13,0 -174.05,-77.92 -174.05,-174.05 0,-96.13 77.92,-174.05 174.05,-174.05zm-734 0c96.13,0 174.05,77.92 174.05,174.05 0,96.13 -77.92,174.05 -174.05,174.05 -96.13,0 -174.05,-77.92 -174.05,-174.05 0,-96.13 77.92,-174.05 174.05,-174.05zm-734 0c96.13,0 174.05,77.92 174.05,174.05 0,96.13 -77.92,174.05 -174.05,174.05 -96.13,0 -174.05,-77.92 -174.05,-174.05 0,-96.13 77.92,-174.05 174.05,-174.05zm-734 0c96.13,0 174.05,77.92 174.05,174.05 0,96.13 -77.92,174.05 -174.05,174.05 -96.13,0 -174.05,-77.92 -174.05,-174.05 0,-96.13 77.92,-174.05 174.05,-174.05zm-734 0c96.13,0 174.05,77.92 174.05,174.05 0,96.13 -77.92,174.05 -174.05,174.05 -96.13,0 -174.05,-77.92 -174.05,-174.05 0,-96.13 77.92,-174.05 174.05,-174.05zm-734 0c96.13,0 174.05,77.92 174.05,174.05 0,96.13 -77.92,174.05 -174.05,174.05 -96.13,0 -174.05,-77.92 -174.05,-174.05 0,-96.13 77.92,-174.05 174.05,-174.05zm-734 0c96.13,0 174.05,77.92 174.05,174.05 0,96.13 -77.92,174.05 -174.05,174.05 -96.13,0 -174.05,-77.92 -174.05,-174.05 0,-96.13 77.92,-174.05 174.05,-174.05z"/>
  <path class="fil1" d="M4471.32 1067.05l0 203.67 -19.35 0c-11.94,-47.03 -25.02,-80.78 -39.44,-101.26 -14.42,-20.68 -34.33,-36.99 -59.55,-49.12 -14.03,-6.64 -38.68,-10.05 -73.95,-10.05l-56.89 0 0 582.55c0,38.88 2.09,63.15 6.26,72.82 4.17,9.67 12.51,18.21 24.65,25.41 12.32,7.4 29.01,11 50.25,11l24.65 0 0 19.34 -392.54 0 0 -19.34 24.84 0c21.62,0 39.06,-3.99 52.34,-11.76 9.47,-5.31 17.06,-14.22 22.57,-26.92 3.98,-8.91 6.07,-32.43 6.07,-70.55l0 -582.55 -54.62 0c-50.44,0 -87.04,10.81 -109.98,32.24 -32.05,29.96 -52.15,72.63 -60.68,128.19l-21.62 0 0 -203.67 676.98 0zm428.75 539.32l-263.78 0 -32.8 73.57c-10.43,24.65 -15.55,45.13 -15.55,61.25 0,21.43 8.53,37.17 25.4,47.4 10.05,5.89 34.71,10.43 73.96,13.47l0 19.34 -250.51 0 0 -19.34c26.92,-4.18 49.3,-15.55 66.56,-33.95 17.45,-18.58 39.07,-56.89 64.47,-114.92l269.28 -600.94 10.61 0 271.74 617.63c25.98,59.16 47.22,96.52 63.91,111.88 12.7,11.76 30.34,18.4 53.48,20.3l0 19.34 -364.48 0 0 -19.34 14.98 0c29.2,0 49.87,-4.18 61.63,-12.52 8.15,-5.88 12.13,-14.6 12.13,-25.78 0,-6.83 -0.95,-13.85 -3.22,-21.06 -0.76,-3.22 -6.27,-17.44 -16.69,-42.28l-41.15 -94.05zm-17.82 -40.96l-112.45 -256.95 -115.11 256.95 227.56 0zm1086.4 -7.97l-28.45 263.97 -667.88 0 0 -19.34 24.84 0c21.81,0 39.44,-3.99 52.72,-11.76 9.66,-5.31 17.06,-14.22 22.19,-26.92 3.98,-8.91 6.07,-32.43 6.07,-70.55l0 -497.22c0,-38.88 -2.09,-63.15 -6.07,-72.82 -4.18,-9.67 -12.33,-18.21 -24.65,-25.41 -12.32,-7.4 -29.01,-10.99 -50.25,-10.99l-24.84 0 0 -19.35 401.64 0 0 19.35 -33 0c-21.81,0 -39.45,3.98 -52.91,11.75 -9.67,5.31 -17.26,14.22 -22.95,26.92 -3.98,8.91 -6.07,32.43 -6.07,70.55l0 481.28c0,38.5 2.28,63.15 6.64,73.76 4.36,10.62 13.08,18.4 25.98,23.71 9.28,3.23 31.66,4.94 66.94,4.94l62.57 0c39.83,0 73.02,-7.02 99.56,-21.06 26.55,-14.03 49.69,-36.22 69.03,-66.56 19.34,-30.34 37.74,-75.09 55,-134.26l23.9 0zm513.7 -201.01l264.16 332.24c37.36,46.83 69.6,78.69 96.71,95.57 19.54,11.94 40.4,17.83 62.2,17.83l0 19.34 -391.59 0 0 -19.34c24.84,-2.28 40.77,-6.27 47.98,-11.76 7.21,-5.69 10.8,-12.51 10.8,-20.86 0,-15.74 -16.88,-45.32 -51.01,-88.75l-172.56 -216.95 -28.25 22.76 0 206.32c0,39.64 2.27,64.29 6.64,73.95 4.55,9.67 13.08,18.02 25.78,24.84 12.71,7.02 33,10.43 60.87,10.43l0 19.34 -380.02 0 0 -19.34 24.83 0c21.81,0 39.45,-3.99 52.72,-11.76 9.67,-5.31 17.07,-14.22 22.19,-26.92 3.99,-8.91 6.08,-32.43 6.08,-70.55l0 -497.22c0,-38.88 -2.09,-63.15 -6.08,-72.82 -4.17,-9.67 -12.32,-18.21 -24.64,-25.41 -12.33,-7.4 -29.02,-10.99 -50.26,-10.99l-24.83 0 0 -19.35 374.33 0 0 19.35c-25.41,0 -44.94,3.79 -58.21,11.18 -9.67,5.31 -17.26,14.03 -22.76,26.36 -4.37,9.28 -6.64,33.18 -6.64,71.68l0 235.34 280.46 -225.66c38.88,-32.05 58.22,-57.84 58.22,-76.99 0,-14.41 -7.97,-25.6 -23.9,-33.95 -8.15,-4.17 -28.25,-6.83 -60.49,-7.96l0 -19.35 293.36 0 0 19.35c-26.36,1.89 -47.03,6.64 -62.01,14.41 -14.98,7.59 -49.49,33.75 -103.54,78.12l-220.54 177.5zm826.42 445.64l0 19.34 -392.54 0 0 -19.34 24.84 0c21.81,0 39.44,-3.99 52.72,-11.76 9.66,-5.31 17.06,-14.22 22.19,-26.92 3.98,-8.91 6.07,-32.43 6.07,-70.55l0 -497.22c0,-38.88 -2.09,-63.15 -6.07,-72.82 -4.18,-9.67 -12.33,-18.21 -24.65,-25.41 -12.32,-7.4 -29.01,-10.99 -50.25,-10.99l-24.84 0 0 -19.35 392.54 0 0 19.35 -24.84 0c-21.62,0 -39.07,3.98 -52.34,11.75 -9.48,5.31 -17.07,14.22 -22.57,26.92 -3.98,8.91 -6.07,32.43 -6.07,70.55l0 497.22c0,38.88 2.09,63.15 6.26,72.82 4.37,9.67 12.51,18.21 24.84,25.41 12.32,7.4 29.01,11 49.87,11l24.84 0zm310.23 -735.02l371.49 467.25 0 -323.89c0,-45.7 -6.45,-76.42 -19.53,-92.54 -17.83,-21.81 -47.79,-32.23 -89.69,-31.47l0 -19.35 249.18 0 0 19.35c-31.86,4.17 -53.29,9.47 -64.29,15.92 -10.8,6.65 -19.34,17.26 -25.59,32.05 -6.08,14.79 -9.1,40.21 -9.1,76.04l0 628.06 -18.78 0 -509.16 -628.82 0 480.91c0,43.62 9.85,73.21 29.77,88.57 19.91,15.36 42.85,22.95 68.46,22.95l17.82 0 0 19.34 -268.52 0 0 -19.34c41.72,-0.38 70.55,-8.91 87.04,-25.79 16.31,-16.88 24.46,-45.32 24.46,-85.72l0 -533.43 -15.74 -19.53c-15.93,-20.49 -29.96,-33.95 -42.28,-40.4 -12.13,-6.45 -29.77,-10.05 -52.72,-10.8l0 -19.35 267.19 0zm1324.02 -17.07l0 265.11 -19.35 0c-24.83,-72.06 -62.19,-126.86 -111.88,-164.41 -49.68,-37.55 -104.11,-56.33 -163.08,-56.33 -56.52,0 -103.35,15.74 -140.89,47.41 -37.55,31.67 -64.1,75.85 -79.65,132.37 -15.55,56.7 -23.33,114.72 -23.33,174.27 0,72.25 8.34,135.4 25.41,189.81 17.07,54.43 44.56,94.25 82.49,119.85 37.93,25.6 82.87,38.31 135.02,38.31 18.21,0 36.79,-1.89 55.76,-5.88 19.15,-3.79 38.68,-9.48 58.59,-16.88l0 -155.87c0,-30.15 -2.09,-49.68 -6.07,-58.59 -3.99,-8.72 -12.52,-16.88 -25.22,-23.9 -12.7,-7.21 -28.06,-10.81 -46.08,-10.81l-19.34 0 0 -19.34 366.37 0 0 19.34c-27.87,1.9 -47.41,5.7 -58.4,11.57 -10.81,5.88 -19.35,15.55 -25.22,29.2 -3.41,7.02 -5.12,24.65 -5.12,52.53l0 155.87c-48.17,21.43 -98.23,37.55 -150.19,48.55 -51.96,10.8 -106,16.31 -161.95,16.31 -71.3,0 -130.65,-9.67 -177.87,-29.2 -47.22,-19.35 -88.94,-44.94 -124.97,-76.61 -36.03,-31.67 -64.28,-67.32 -84.57,-106.95 -25.98,-51.01 -38.88,-108.28 -38.88,-171.42 0,-113.4 39.83,-208.98 119.47,-287.1 79.83,-78.13 180.15,-117.2 300.95,-117.2 37.55,0 71.12,2.85 101.27,8.72 16.3,3.04 42.66,11.38 79.26,25.22 36.41,13.84 58.02,20.67 64.66,20.67 10.43,0 20.11,-3.79 29.02,-11.37 8.9,-7.59 17.06,-22 24.46,-43.24l19.35 0z"/>
 </g>
</svg>
